<svg width="269" height="44" viewBox="0 0 269 44" fill="none" xmlns="http://www.w3.org/2000/svg">
<g clip-path="url(#clip0_4121_1106)">
<mask id="mask0_4121_1106" style="mask-type:luminance" maskUnits="userSpaceOnUse" x="0" y="0" width="59" height="44">
<path d="M58.331 0H0.0164871V43.3482H58.331V0Z" fill="white"/>
</mask>
<g mask="url(#mask0_4121_1106)">
<path d="M22.089 15.6727V21.1882C19.0527 20.9879 16.1949 21.5267 13.6539 22.5243V20.0633C13.6539 14.6788 14.4548 13.8779 15.4486 13.8779H20.2978C21.2881 13.8779 22.0926 14.6788 22.0926 15.6727H22.089Z" fill="url(#paint0_linear_4121_1106)"/>
<path d="M33.5167 10.0153L32.035 11.9266H33.5167V24.2208C30.8518 23.1541 28.0558 22.193 25.0815 21.6105V9.53843C25.0815 8.61375 25.8315 7.86377 26.7525 7.86377H31.8457C32.7667 7.86377 33.5167 8.61375 33.5167 9.53843V10.0117V10.0153Z" fill="url(#paint1_linear_4121_1106)"/>
<path d="M45.1556 2.15521V29.0225C44.3583 28.7313 43.5173 28.4073 42.6254 28.0396C40.7068 27.3005 38.7446 26.4304 36.7167 25.5567V11.9228H38.3368L36.7167 9.8368V2.15521C36.7167 0.964745 37.6815 0 38.872 0H42.9967C44.1872 0 45.1519 0.964745 45.1519 2.15521H45.1556Z" fill="url(#paint2_linear_4121_1106)"/>
<path d="M58.3308 34.203C52.4331 40.807 43.6812 40.9271 36.178 38.8666C30.4878 37.4249 25.2163 34.4615 19.1693 32.947C17.4073 32.5065 15.5761 32.1861 13.6539 32.066C10.2463 31.8512 6.53658 32.2517 2.36449 33.6787C2.36449 33.6787 2.36449 33.6787 2.36814 33.6751C2.91786 32.6485 3.6569 31.6109 4.56703 30.6098C6.75865 28.1924 9.91865 26.0081 13.6575 24.8358C16.0493 24.0859 18.6815 23.7509 21.4447 24.0349C21.6631 24.0604 21.8779 24.0895 22.0927 24.1223C23.112 24.2679 24.1095 24.4609 25.0852 24.6939C28.0559 25.3965 30.8519 26.4486 33.5204 27.5626C34.6053 28.0141 35.672 28.4764 36.7204 28.9315C38.2713 29.605 39.7858 30.2566 41.2748 30.8318C42.691 31.4107 43.9761 31.8912 45.1593 32.2881C50.489 34.0828 53.6381 34.192 56.5142 34.1957C57.1294 34.1957 57.7301 34.1957 58.3381 34.1993L58.3308 34.203Z" fill="url(#paint3_linear_4121_1106)"/>
<path d="M0.0163193 38.204C4.03914 34.2504 11.2911 33.526 16.9849 34.5162C26.5815 36.1763 31.4452 41.1274 41.0636 42.6128C30.2912 46.4972 15.1137 33.5077 0.0163193 38.204Z" fill="url(#paint4_linear_4121_1106)"/>
</g>
<path d="M80.262 19.2282C82.6764 19.2282 84.5402 19.8212 85.8526 21.0071C87.1658 22.193 87.8227 23.8767 87.8227 26.058C87.8227 28.2392 87.1553 29.9122 85.8211 31.077C84.508 32.2206 82.6022 32.7923 80.1032 32.7923H74.0992C71.9605 32.7923 70.2345 32.1994 68.9216 31.0134C67.6086 29.8275 66.8251 28.1439 66.571 25.9626H71.1769C71.3889 27.0215 71.7485 27.7627 72.2571 28.1863C72.765 28.5886 73.5598 28.7898 74.6393 28.7898H80.0081C81.0666 28.7898 81.8823 28.5463 82.4539 28.0592C83.0472 27.5721 83.3431 26.8839 83.3431 25.9944C83.3431 25.1473 83.0577 24.4802 82.4854 23.9931C81.9138 23.4849 81.1303 23.2308 80.1347 23.2308H74.9254C72.4901 23.2308 70.6473 22.6907 69.3981 21.6107C68.1486 20.5306 67.524 18.9317 67.524 16.814C67.524 15.8611 67.6933 15.0034 68.0322 14.241C68.3711 13.4574 68.8581 12.8009 69.4934 12.2715C70.1289 11.7209 70.8915 11.2973 71.7807 11.0008C72.6699 10.7044 73.6654 10.5562 74.7666 10.5562H79.5631C81.6808 10.5562 83.3753 11.1385 84.6458 12.3033C85.9163 13.4469 86.6894 15.0881 86.965 17.227H82.3588C82.1895 16.2952 81.8397 15.6175 81.3101 15.1939C80.8021 14.7704 80.0927 14.5586 79.1818 14.5586H74.9254C73.8452 14.5586 73.0938 14.781 72.6699 15.2258C72.2466 15.6704 72.0346 16.2317 72.0346 16.9093C72.0346 17.587 72.2676 18.1482 72.7335 18.5929C73.1995 19.0165 73.8774 19.2282 74.7666 19.2282H80.262Z" fill="#E4E4E4"/>
<path d="M106.905 28.7898V32.7923H90.1635V10.5562H106.396V14.5586H94.5158V19.9271H103.76V19.9588L101.123 23.7708H94.5158V28.7898H106.905Z" fill="#E4E4E4"/>
<path d="M131.127 32.7923H126.426L123.694 25.5497L121.057 29.3298H113.274L111.973 32.7923H107.271L116.197 10.5562H122.201L131.127 32.7923ZM123.662 25.4862L119.533 14.5586H118.834L114.736 25.4862H123.662Z" fill="#E4E4E4"/>
<path d="M160.64 19.9271V32.7923H147.996C146.535 32.7923 145.254 32.4746 144.153 31.8393C143.051 31.204 142.13 30.3675 141.389 29.3298C140.669 28.271 140.119 27.0851 139.737 25.772C139.377 24.4379 139.197 23.072 139.197 21.6742C139.197 20.2765 139.377 18.9212 139.737 17.6082C140.119 16.274 140.669 15.0881 141.389 14.0504C142.13 12.9915 143.051 12.1444 144.153 11.5091C145.254 10.8738 146.535 10.5562 147.996 10.5562H158.797L158.733 14.5586H148.886C147.763 14.5586 146.821 14.9081 146.059 15.6069C145.296 16.3058 144.725 17.1846 144.344 18.2435C143.962 19.3024 143.761 20.446 143.74 21.6742C143.719 22.9025 143.878 24.0461 144.216 25.105C144.576 26.1638 145.127 27.0427 145.868 27.7415C146.61 28.4404 147.53 28.7898 148.631 28.7898H156.287V23.9296H149.966V23.8979L152.602 19.9271H160.64Z" fill="#E4E4E4"/>
<path d="M180.023 28.7898V32.7923H163.283V10.5562H167.634V28.7898H180.023Z" fill="#E4E4E4"/>
<path d="M195.819 10.5562C197.258 10.5562 198.518 10.8738 199.599 11.5091C200.7 12.1444 201.611 12.9809 202.331 14.0187C203.051 15.0563 203.591 16.2422 203.951 17.5764C204.332 18.9106 204.523 20.2765 204.523 21.6742C204.544 23.0508 204.374 24.4061 204.014 25.7403C203.675 27.0744 203.146 28.2604 202.426 29.2981C201.727 30.3357 200.838 31.1828 199.757 31.8393C198.699 32.4746 197.449 32.7923 196.009 32.7923H189.116C187.655 32.7923 186.373 32.4746 185.272 31.8393C184.171 31.204 183.249 30.3675 182.509 29.3298C181.789 28.271 181.238 27.0851 180.857 25.772C180.497 24.4379 180.317 23.072 180.317 21.6742C180.317 20.2765 180.497 18.9212 180.857 17.6082C181.238 16.274 181.789 15.0881 182.509 14.0504C183.249 12.9915 184.171 12.1444 185.272 11.5091C186.373 10.8738 187.655 10.5562 189.116 10.5562H195.819ZM195.088 28.7898C196.21 28.7475 197.132 28.3768 197.852 27.678C198.593 26.9579 199.143 26.0685 199.504 25.0097C199.863 23.9508 200.033 22.8178 200.011 21.6107C199.99 20.3824 199.778 19.2494 199.376 18.2117C198.995 17.1528 198.423 16.2846 197.661 15.6069C196.899 14.9081 195.956 14.5586 194.834 14.5586H190.006C188.883 14.5586 187.94 14.9081 187.178 15.6069C186.416 16.3058 185.844 17.1846 185.463 18.2435C185.082 19.3024 184.88 20.446 184.859 21.6742C184.838 22.9025 184.997 24.0461 185.336 25.105C185.696 26.1638 186.247 27.0427 186.987 27.7415C187.729 28.4404 188.65 28.7898 189.751 28.7898H195.088Z" fill="#E4E4E4"/>
<path d="M221.973 21.1342C223.434 21.4307 224.503 22.0872 225.181 23.1037C225.879 24.1202 226.229 25.4438 226.229 27.0744C226.229 28.9169 225.689 30.3357 224.609 31.3311C223.529 32.3053 221.93 32.7923 219.812 32.7923H206.884V10.5562H218.478C220.596 10.5562 222.195 11.0432 223.275 12.0174C224.355 12.9704 224.895 14.3786 224.895 16.2422C224.895 17.5553 224.641 18.6247 224.133 19.4506C223.646 20.2765 222.926 20.8378 221.973 21.1342ZM218.033 28.7898C219.368 28.7898 220.31 28.5463 220.86 28.0592C221.433 27.5721 221.718 26.9051 221.718 26.058C221.718 24.9779 221.348 24.0461 220.607 23.2625C219.887 22.479 218.775 21.9177 217.271 21.5789V21.2931C218.245 20.8483 219.008 20.3295 219.559 19.7365C220.109 19.1224 220.384 18.3706 220.384 17.4811C220.384 16.4646 220.099 15.7234 219.526 15.2575C218.976 14.7916 218.033 14.5586 216.699 14.5586H211.236V28.7898H218.033Z" fill="#E4E4E4"/>
<path d="M250.732 32.7923H246.031L243.299 25.5497L240.662 29.3298H232.88L231.577 32.7923H226.876L235.802 10.5562H241.806L250.732 32.7923ZM243.268 25.4862L239.138 14.5586H238.439L234.341 25.4862H243.268Z" fill="#E4E4E4"/>
<path d="M268.932 28.7898V32.7923H252.191V10.5562H256.543V28.7898H268.932Z" fill="#E4E4E4"/>
</g>
<defs>
<linearGradient id="paint0_linear_4121_1106" x1="17.8732" y1="13.8779" x2="17.8732" y2="22.5243" gradientUnits="userSpaceOnUse">
<stop stopColor="#E3E3E3"/>
<stop offset="1" stopColor="#757575"/>
</linearGradient>
<linearGradient id="paint1_linear_4121_1106" x1="29.2991" y1="7.86377" x2="29.2991" y2="24.2208" gradientUnits="userSpaceOnUse">
<stop stopColor="#E3E3E3"/>
<stop offset="1" stopColor="#757575"/>
</linearGradient>
<linearGradient id="paint2_linear_4121_1106" x1="40.9362" y1="0" x2="40.9362" y2="29.0225" gradientUnits="userSpaceOnUse">
<stop stopColor="#E3E3E3"/>
<stop offset="1" stopColor="#757575"/>
</linearGradient>
<linearGradient id="paint3_linear_4121_1106" x1="30.3513" y1="23.9346" x2="31.705" y2="39.4857" gradientUnits="userSpaceOnUse">
<stop stopColor="#F2C938"/>
<stop offset="0.548396" stopColor="#CD950E"/>
<stop offset="1" stopColor="#A26B06"/>
</linearGradient>
<linearGradient id="paint4_linear_4121_1106" x1="20.5399" y1="34.1181" x2="21.1478" y2="43.0547" gradientUnits="userSpaceOnUse">
<stop stopColor="#F2C938"/>
<stop offset="0.548396" stopColor="#CD950E"/>
<stop offset="1" stopColor="#A26B06"/>
</linearGradient>
<clipPath id="clip0_4121_1106">
<rect width="269" height="43.3758" fill="white"/>
</clipPath>
</defs>
</svg>
