<?xml version="1.0" encoding="UTF-8" standalone="no"?><!DOCTYPE svg PUBLIC "-//W3C//DTD SVG 1.1//EN" "http://www.w3.org/Graphics/SVG/1.1/DTD/svg11.dtd"><svg width="100%" height="100%" viewBox="0 0 807 223" version="1.1" xmlns="http://www.w3.org/2000/svg" xmlns:xlink="http://www.w3.org/1999/xlink" xml:space="preserve" xmlns:serif="http://www.serif.com/" style="fill-rule:evenodd;clip-rule:evenodd;stroke-linejoin:round;stroke-miterlimit:1.41421;"><g><path d="M45.227,65.333l37.694,-65.333l90.455,0l45.227,78.336l-45.227,78.336l-101.766,-0.049l0,-26.063l86.69,0l30.151,-52.224l-30.151,-52.224l-60.303,0l-22.622,39.221l-30.148,0Z" style="fill:#E9E9E9;"/><path d="M95.401,173.849l-19.316,-30.152l19.316,-30.151l-22.368,0l-17.677,30.151l17.677,30.152l22.368,0Z" style="fill:#E9E9E9;"/></g><g><path d="M173.376,156.672l-37.694,65.333l-90.455,0l-45.227,-78.336l45.227,-78.336l101.766,0.048l0,26.064l-86.69,0l-30.152,52.224l30.152,52.224l60.303,0l22.622,-39.224l30.148,0.003Z" style="fill:#6eb4ff;"/><path d="M123.201,48.156l19.317,30.152l-19.317,30.151l22.369,0l17.677,-30.151l-17.677,-30.152l-22.369,0Z" style="fill:#6eb4ff;"/></g><path d="M261.018,110.937l0,-87.383l54.969,0l0,11.985l-36.783,0l0,26.57l30.23,0l0,12.044l-30.23,0l0,36.784l-18.186,0Z" style="fill:#6eb4ff;fill-rule:nonzero;"/><path d="M332.267,110.937l0,-64.829l17.476,0l0,64.829l-17.476,0Zm0,-75.752l0,-14.584l17.476,0l0,14.584l-17.476,0Z" style="fill:#6eb4ff;fill-rule:nonzero;"/><path d="M373.403,110.937l0,-64.829l17.477,0l0,12.222c5.707,-9.132 13.068,-13.698 22.082,-13.698c5.786,0 10.352,1.83 13.698,5.491c3.346,3.661 5.019,8.66 5.019,14.997l0,45.817l-17.477,0l0,-41.507c0,-7.361 -2.441,-11.041 -7.321,-11.041c-5.551,0 -10.884,3.916 -16.001,11.75l0,40.798l-17.477,0Z" style="fill:#6eb4ff;fill-rule:nonzero;"/><path d="M486.395,103.97c-5.826,5.629 -12.065,8.443 -18.717,8.443c-5.668,0 -10.273,-1.732 -13.816,-5.196c-3.542,-3.463 -5.314,-7.951 -5.314,-13.461c0,-7.164 2.864,-12.685 8.591,-16.562c5.727,-3.877 13.924,-5.816 24.591,-5.816l4.665,0l0,-5.904c0,-6.731 -3.838,-10.096 -11.514,-10.096c-6.809,0 -13.698,1.929 -20.665,5.786l0,-12.045c7.912,-2.991 15.745,-4.487 23.5,-4.487c16.965,0 25.447,6.751 25.447,20.252l0,28.695c0,5.077 1.634,7.616 4.901,7.616c0.59,0 1.358,-0.079 2.302,-0.236l0.414,9.801c-3.7,1.102 -6.968,1.653 -9.802,1.653c-7.163,0 -11.769,-2.814 -13.816,-8.443l-0.767,0Zm0,-9.388l0,-13.166l-4.133,0c-11.297,0 -16.946,3.542 -16.946,10.627c0,2.402 0.817,4.419 2.451,6.052c1.633,1.634 3.651,2.451 6.052,2.451c4.093,0 8.285,-1.988 12.576,-5.964Z" style="fill:#6eb4ff;fill-rule:nonzero;"/><path d="M527.531,110.937l0,-64.829l17.477,0l0,12.222c5.707,-9.132 13.068,-13.698 22.082,-13.698c5.786,0 10.352,1.83 13.698,5.491c3.346,3.661 5.019,8.66 5.019,14.997l0,45.817l-17.477,0l0,-41.507c0,-7.361 -2.441,-11.041 -7.321,-11.041c-5.55,0 -10.884,3.916 -16.001,11.75l0,40.798l-17.477,0Z" style="fill:#6eb4ff;fill-rule:nonzero;"/><path d="M656.583,109.52c-7.243,1.929 -13.954,2.893 -20.134,2.893c-10.352,0 -18.53,-3.04 -24.532,-9.122c-6.003,-6.081 -9.004,-14.357 -9.004,-24.827c0,-10.589 3.089,-18.874 9.269,-24.858c6.18,-5.983 14.722,-8.974 25.625,-8.974c5.274,0 11.356,0.846 18.244,2.539l0,12.635c-7.164,-2.322 -12.891,-3.484 -17.181,-3.484c-5.235,0 -9.447,2.008 -12.636,6.023c-3.188,4.015 -4.782,9.348 -4.782,16c0,6.81 1.722,12.262 5.166,16.355c3.444,4.094 8.04,6.141 13.787,6.141c5.235,0 10.628,-1.142 16.178,-3.425l0,12.104Z" style="fill:#6eb4ff;fill-rule:nonzero;"/><path d="M674.928,110.937l0,-64.829l17.477,0l0,64.829l-17.477,0Zm0,-75.752l0,-14.584l17.477,0l0,14.584l-17.477,0Z" style="fill:#6eb4ff;fill-rule:nonzero;"/><path d="M747.83,103.97c-5.826,5.629 -12.065,8.443 -18.717,8.443c-5.668,0 -10.273,-1.732 -13.816,-5.196c-3.542,-3.463 -5.314,-7.951 -5.314,-13.461c0,-7.164 2.864,-12.685 8.591,-16.562c5.727,-3.877 13.924,-5.816 24.591,-5.816l4.665,0l0,-5.904c0,-6.731 -3.838,-10.096 -11.513,-10.096c-6.81,0 -13.698,1.929 -20.666,5.786l0,-12.045c7.912,-2.991 15.745,-4.487 23.5,-4.487c16.965,0 25.447,6.751 25.447,20.252l0,28.695c0,5.077 1.634,7.616 4.901,7.616c0.59,0 1.358,-0.079 2.302,-0.236l0.414,9.801c-3.7,1.102 -6.967,1.653 -9.802,1.653c-7.163,0 -11.769,-2.814 -13.816,-8.443l-0.767,0Zm0,-9.388l0,-13.166l-4.133,0c-11.297,0 -16.945,3.542 -16.945,10.627c0,2.402 0.816,4.419 2.45,6.052c1.633,1.634 3.651,2.451 6.052,2.451c4.093,0 8.285,-1.988 12.576,-5.964Z" style="fill:#6eb4ff;fill-rule:nonzero;"/><rect x="788.966" y="17.708" width="17.477" height="93.229" style="fill:#6eb4ff;fill-rule:nonzero;"/><path d="M294.968,186.515c-1.161,7.98 -3.628,11.173 -8.707,11.173c-5.949,0 -9.721,-8.344 -9.721,-20.097c0,-12.261 3.409,-19.081 9.286,-19.081c5.296,0 8.053,3.555 8.779,11.535l13.495,-3.047c-2.032,-11.536 -9.722,-17.92 -21.548,-17.92c-14.656,0 -23.797,11.1 -23.797,29.021c0,19.226 8.343,29.02 24.45,29.02c11.608,0 18.573,-6.021 21.693,-18.863l-13.93,-1.741Z" style="fill:#E9E9E9;fill-rule:nonzero;"/><path d="M366.722,149.078c-14.148,0 -24.088,8.706 -24.088,29.021c0,20.314 9.94,29.02 24.088,29.02c14.147,0 24.087,-8.706 24.087,-29.02c0,-20.315 -9.94,-29.021 -24.087,-29.021Zm0,48.61c-6.385,0 -9.94,-5.224 -9.94,-19.589c0,-14.366 3.555,-19.589 9.94,-19.589c6.384,0 9.939,5.223 9.939,19.589c0,14.365 -3.555,19.589 -9.939,19.589Z" style="fill:#E9E9E9;fill-rule:nonzero;"/><path d="M461.982,149.803l0,16.615c0,9.432 0.508,19.371 1.451,28.73l-0.653,0c-0.87,-3.917 -1.958,-7.835 -3.337,-11.608l-12.044,-33.737l-18.863,0l0,56.591l11.753,0l0,-15.091c0,-7.908 -0.435,-20.967 -1.378,-30.254l0.653,0c0.87,3.918 1.886,7.836 3.265,11.608l12.043,33.737l18.864,0l0,-56.591l-11.754,0Z" style="fill:#E9E9E9;fill-rule:nonzero;"/><path d="M553.543,149.803l-43.531,0l0,10.52l15.236,0l0,46.071l13.059,0l0,-46.071l15.236,0l0,-10.52Z" style="fill:#E9E9E9;fill-rule:nonzero;"/><path d="M602.878,196.599l0,-14.147l18.864,0l0,-9.432l-18.864,0l0,-13.422l20.968,0l0,-9.795l-34.027,0l0,56.591l34.68,0l0,-9.795l-21.621,0Z" style="fill:#E9E9E9;fill-rule:nonzero;"/><path d="M694.947,149.803l0,16.615c0,9.432 0.508,19.371 1.451,28.73l-0.653,0c-0.871,-3.917 -1.959,-7.835 -3.338,-11.608l-12.043,-33.737l-18.864,0l0,56.591l11.754,0l0,-15.091c0,-7.908 -0.436,-20.967 -1.379,-30.254l0.653,0c0.871,3.918 1.886,7.836 3.265,11.608l12.044,33.737l18.863,0l0,-56.591l-11.753,0Z" style="fill:#E9E9E9;fill-rule:nonzero;"/><path d="M786.507,149.803l-43.531,0l0,10.52l15.236,0l0,46.071l13.059,0l0,-46.071l15.236,0l0,-10.52Z" style="fill:#E9E9E9;fill-rule:nonzero;"/></svg>
