<svg xmlns="http://www.w3.org/2000/svg" width="175" height="61" viewBox="0 0 175 61"><path fill="#0A0A0A" d="M9.16 11.728 7.54 28H.16L3.796 1.108h9.18l4.284 14.94h.072l4.176-14.94H30.4L34.072 28H26.62l-1.512-16.272h-.144L20.356 28h-6.588L9.304 11.728H9.16Z"/><path fill="#0A0A0A" d="M62.157 28h-8.172l-1.764-5.292h-8.892L41.637 28H33.5l9.684-26.892h9.108L62.157 28ZM45.345 16.408h4.788L47.72 9.064l-2.376 7.344ZM62.879 28V1.108h9.576c6.732 0 11.412 2.988 11.412 9.36 0 2.52-1.116 6.192-5.58 8.064L85.271 28h-9.252l-5.112-8.316h-.18V28h-7.848Zm7.848-14.184h1.692c1.98 0 3.528-.936 3.528-2.808 0-1.908-1.548-2.808-3.564-2.808h-1.656v5.616ZM111.67 1.108l-9.288 13.14L111.958 28h-9.18l-8.46-12.348V28H86.47V1.108h7.848V13.24l8.352-12.132h9ZM112.382 28V1.108h18.576v6.984H120.23v3.24h9.648v6.336h-9.648v3.348h10.728V28h-18.576ZM139.306 28V8.2h-7.416V1.108h22.644V8.2h-7.38V28h-7.848ZM165.238.532c2.916 0 5.544.756 7.488 1.872v6.912c-1.692-1.188-4.572-2.016-6.912-2.016-2.124 0-3.204.684-3.204 1.584 0 .936 1.188 1.368 3.312 2.124 3.6 1.26 8.496 2.952 8.496 8.676 0 5.112-3.852 8.892-10.62 8.892-3.492 0-6.696-1.008-8.676-2.34v-7.272c1.944 1.584 4.896 2.844 7.74 2.844 2.412 0 3.528-.9 3.528-1.908 0-1.296-1.836-1.872-4.032-2.664-2.88-1.044-7.452-2.916-7.452-8.136 0-4.716 3.708-8.568 10.332-8.568ZM18.228 60V33.108h7.848V60h-7.848ZM53.963 33.108V60h-7.488l-9.684-14.436h-.036V60h-7.452V33.108h7.488l9.684 14.184h.036V33.108h7.452ZM66.795 32.532c2.916 0 5.544.756 7.488 1.872v6.912C72.59 40.128 69.71 39.3 67.37 39.3c-2.124 0-3.204.684-3.204 1.584 0 .936 1.188 1.368 3.312 2.124 3.6 1.26 8.496 2.952 8.496 8.676 0 5.112-3.852 8.892-10.62 8.892-3.492 0-6.696-1.008-8.676-2.34v-7.272c1.944 1.584 4.896 2.844 7.74 2.844 2.412 0 3.528-.9 3.528-1.908 0-1.296-1.836-1.872-4.032-2.664-2.88-1.044-7.452-2.916-7.452-8.136 0-4.716 3.708-8.568 10.332-8.568ZM77.998 60V33.108h7.848V60h-7.848ZM98.145 33.108c8.784 0 14.904 5.364 14.904 13.464 0 8.1-6.12 13.428-14.904 13.428h-9.072V33.108h9.072Zm-1.224 19.8h1.512c4.068 0 6.696-2.304 6.696-6.336 0-4.068-2.628-6.372-6.696-6.372h-1.512v12.708ZM114.985 60V33.108h18.576v6.984h-10.728v3.24h9.648v6.336h-9.648v3.348h10.728V60h-18.576ZM136.185 60V33.108h9.576c6.732 0 11.412 2.988 11.412 9.36 0 2.52-1.116 6.192-5.58 8.064L158.577 60h-9.252l-5.112-8.316h-.18V60h-7.848Zm7.848-14.184h1.692c1.98 0 3.528-.936 3.528-2.808 0-1.908-1.548-2.808-3.564-2.808h-1.656v5.616Z"/></svg>
