<svg width="24" height="24" viewBox="0 0 24 24" fill="none" xmlns="http://www.w3.org/2000/svg">
<path d="M9 5V9" stroke="url(#paint0_linear_4144_6397)" stroke-width="2" stroke-linecap="round" stroke-linejoin="round"/>
<path d="M10 9H8C7.44772 9 7 9.44772 7 10V14C7 14.5523 7.44772 15 8 15H10C10.5523 15 11 14.5523 11 14V10C11 9.44772 10.5523 9 10 9Z" stroke="url(#paint1_linear_4144_6397)" stroke-width="2" stroke-linecap="round" stroke-linejoin="round"/>
<path d="M9 15V17" stroke="url(#paint2_linear_4144_6397)" stroke-width="2" stroke-linecap="round" stroke-linejoin="round"/>
<path d="M17 3V5" stroke="url(#paint3_linear_4144_6397)" stroke-width="2" stroke-linecap="round" stroke-linejoin="round"/>
<path d="M18 5H16C15.4477 5 15 5.44772 15 6V12C15 12.5523 15.4477 13 16 13H18C18.5523 13 19 12.5523 19 12V6C19 5.44772 18.5523 5 18 5Z" stroke="url(#paint4_linear_4144_6397)" stroke-width="2" stroke-linecap="round" stroke-linejoin="round"/>
<path d="M17 13V16" stroke="url(#paint5_linear_4144_6397)" stroke-width="2" stroke-linecap="round" stroke-linejoin="round"/>
<path d="M3 3V19C3 19.5304 3.21071 20.0391 3.58579 20.4142C3.96086 20.7893 4.46957 21 5 21H21" stroke="url(#paint6_linear_4144_6397)" stroke-width="2" stroke-linecap="round" stroke-linejoin="round"/>
<defs>
<linearGradient id="paint0_linear_4144_6397" x1="9" y1="7" x2="10" y2="7" gradientUnits="userSpaceOnUse">
<stop offset="0.1" stopColor="#E8BC33"/>
<stop offset="1" stopColor="#B07A09"/>
</linearGradient>
<linearGradient id="paint1_linear_4144_6397" x1="7" y1="12" x2="11" y2="12" gradientUnits="userSpaceOnUse">
<stop offset="0.1" stopColor="#E8BC33"/>
<stop offset="1" stopColor="#B07A09"/>
</linearGradient>
<linearGradient id="paint2_linear_4144_6397" x1="9" y1="16" x2="10" y2="16" gradientUnits="userSpaceOnUse">
<stop offset="0.1" stopColor="#E8BC33"/>
<stop offset="1" stopColor="#B07A09"/>
</linearGradient>
<linearGradient id="paint3_linear_4144_6397" x1="17" y1="4" x2="18" y2="4" gradientUnits="userSpaceOnUse">
<stop offset="0.1" stopColor="#E8BC33"/>
<stop offset="1" stopColor="#B07A09"/>
</linearGradient>
<linearGradient id="paint4_linear_4144_6397" x1="15" y1="9" x2="19" y2="9" gradientUnits="userSpaceOnUse">
<stop offset="0.1" stopColor="#E8BC33"/>
<stop offset="1" stopColor="#B07A09"/>
</linearGradient>
<linearGradient id="paint5_linear_4144_6397" x1="17" y1="14.5" x2="18" y2="14.5" gradientUnits="userSpaceOnUse">
<stop offset="0.1" stopColor="#E8BC33"/>
<stop offset="1" stopColor="#B07A09"/>
</linearGradient>
<linearGradient id="paint6_linear_4144_6397" x1="3" y1="12" x2="21" y2="12" gradientUnits="userSpaceOnUse">
<stop offset="0.1" stopColor="#E8BC33"/>
<stop offset="1" stopColor="#B07A09"/>
</linearGradient>
</defs>
</svg>
