<svg width="52" height="52" viewBox="0 0 52 52" fill="none" xmlns="http://www.w3.org/2000/svg">
<g clip-path="url(#clip0_4449_3145)">
<path d="M39.5333 34.399C37.8344 32.7218 35.7136 32.7218 34.0255 34.399C32.7379 35.6758 31.4502 36.9527 30.1842 38.2512C29.8379 38.6083 29.5458 38.684 29.1237 38.4459C28.2906 37.9915 27.4033 37.6236 26.6025 37.1258C22.8694 34.7777 19.7422 31.7588 16.9721 28.361C15.5979 26.673 14.3751 24.866 13.5203 22.8317C13.3472 22.4205 13.3796 22.15 13.7151 21.8145C15.0027 20.5701 16.2579 19.2933 17.5239 18.0165C19.2877 16.2419 19.2877 14.1643 17.5131 12.3789C16.5068 11.3617 15.5005 10.3662 14.4942 9.34906C13.4554 8.31027 12.4274 7.26066 11.3778 6.2327C9.67894 4.57713 7.55808 4.57713 5.87005 6.24352C4.57156 7.52036 3.32718 8.82967 2.00705 10.0849C0.784313 11.2427 0.167533 12.6602 0.0376845 14.3158C-0.167909 17.0101 0.492154 19.553 1.42274 22.0309C3.32718 27.16 6.22713 31.7155 9.74386 35.8923C14.4942 41.5407 20.1642 46.0096 26.7973 49.2342C29.7838 50.6842 32.8785 51.7987 36.2438 51.9827C38.5594 52.1125 40.5721 51.5282 42.1843 49.7211C43.2881 48.4876 44.5324 47.3622 45.7011 46.1828C47.4324 44.4298 47.4432 42.3089 45.7227 40.5776C43.6668 38.5109 41.6 36.4549 39.5333 34.399Z" fill="url(#paint0_linear_4449_3145)"/>
<path d="M37.464 25.7749L41.4569 25.0932C40.8293 21.425 39.0979 18.103 36.4685 15.4628C33.6876 12.6819 30.1709 10.9289 26.2971 10.3879L25.7344 14.4024C28.7317 14.8244 31.4585 16.177 33.6118 18.3303C35.6461 20.3646 36.9771 22.9399 37.464 25.7749Z" fill="url(#paint1_linear_4449_3145)"/>
<path d="M43.7086 8.41851C39.099 3.80889 33.2666 0.898119 26.8283 0L26.2656 4.01448C31.8275 4.79357 36.8699 7.3148 40.8519 11.286C44.6284 15.0624 47.1063 19.8344 48.0044 25.0824L51.9973 24.4007C50.9477 18.3195 48.0802 12.8009 43.7086 8.41851Z" fill="url(#paint2_linear_4449_3145)"/>
</g>
<defs>
<linearGradient id="paint0_linear_4449_3145" x1="0" y1="28.4962" x2="47.0064" y2="28.4962" gradientUnits="userSpaceOnUse">
<stop offset="0.1" stop-color="#E8BC33"/>
<stop offset="1" stop-color="#B07A09"/>
</linearGradient>
<linearGradient id="paint1_linear_4449_3145" x1="25.7344" y1="18.0814" x2="41.4569" y2="18.0814" gradientUnits="userSpaceOnUse">
<stop offset="0.1" stop-color="#E8BC33"/>
<stop offset="1" stop-color="#B07A09"/>
</linearGradient>
<linearGradient id="paint2_linear_4449_3145" x1="26.2656" y1="12.5412" x2="51.9973" y2="12.5412" gradientUnits="userSpaceOnUse">
<stop offset="0.1" stop-color="#E8BC33"/>
<stop offset="1" stop-color="#B07A09"/>
</linearGradient>
<clipPath id="clip0_4449_3145">
<rect width="52" height="52" fill="white"/>
</clipPath>
</defs>
</svg>
