<svg width="52" height="52" viewBox="0 0 52 52" fill="none" xmlns="http://www.w3.org/2000/svg">
<path d="M26 0C20.8577 0 15.8309 1.52487 11.5552 4.38179C7.27951 7.2387 3.94702 11.2993 1.97914 16.0502C0.0112654 20.8011 -0.503621 26.0288 0.499594 31.0723C1.50281 36.1158 3.97907 40.7486 7.61523 44.3848C11.2514 48.0209 15.8842 50.4972 20.9277 51.5004C25.9712 52.5036 31.1989 51.9887 35.9498 50.0209C40.7007 48.053 44.7613 44.7205 47.6182 40.4448C50.4751 36.1691 52 31.1423 52 26C51.9921 19.1068 49.2503 12.4982 44.3761 7.62393C39.5018 2.74969 32.8932 0.00788607 26 0ZM35.6382 35.6382C35.3968 35.8797 35.1103 36.0712 34.7948 36.2019C34.4794 36.3326 34.1414 36.3999 33.7999 36.3999C33.4585 36.3999 33.1204 36.3326 32.805 36.2019C32.4896 36.0712 32.203 35.8797 31.9616 35.6382L24.1617 27.8382C23.9201 27.5969 23.7286 27.3103 23.5979 26.9949C23.4672 26.6795 23.4 26.3414 23.4 26V10.4C23.4 9.71043 23.6739 9.04911 24.1615 8.56152C24.6491 8.07393 25.3104 7.8 26 7.8C26.6896 7.8 27.3509 8.07393 27.8385 8.56152C28.3261 9.04911 28.6 9.71043 28.6 10.4V24.9234L35.6382 31.9616C35.8797 32.203 36.0713 32.4896 36.202 32.805C36.3327 33.1204 36.3999 33.4585 36.3999 33.7999C36.3999 34.1413 36.3327 34.4794 36.202 34.7948C36.0713 35.1103 35.8797 35.3968 35.6382 35.6382Z" fill="url(#paint0_linear_4449_3153)"/>
<defs>
<linearGradient id="paint0_linear_4449_3153" x1="0" y1="26" x2="52" y2="26" gradientUnits="userSpaceOnUse">
<stop offset="0.1" stop-color="#E8BC33"/>
<stop offset="1" stop-color="#B07A09"/>
</linearGradient>
</defs>
</svg>
