<svg width="40" height="40" viewBox="0 0 40 40" fill="none" xmlns="http://www.w3.org/2000/svg">
<rect width="40" height="40" rx="20" fill="white" fill-opacity="0.1"/>
<path d="M18.1667 29.1667V15.4167C18.1667 15.1736 18.0701 14.9404 17.8982 14.7685C17.7263 14.5966 17.4931 14.5 17.25 14.5H12.6667C12.1804 14.5 11.7141 14.6932 11.3703 15.037C11.0265 15.3808 10.8333 15.8471 10.8333 16.3333V27.3333C10.8333 27.8196 11.0265 28.2859 11.3703 28.6297C11.7141 28.9735 12.1804 29.1667 12.6667 29.1667H23.6667C24.1529 29.1667 24.6192 28.9735 24.963 28.6297C25.3069 28.2859 25.5 27.8196 25.5 27.3333V22.75C25.5 22.5069 25.4034 22.2737 25.2315 22.1018C25.0596 21.9299 24.8265 21.8333 24.5833 21.8333H10.8333" stroke="white" stroke-width="1.83333" stroke-linecap="round" stroke-linejoin="round"/>
<path d="M28.25 10.8333H22.75C22.2437 10.8333 21.8333 11.2437 21.8333 11.75V17.25C21.8333 17.7562 22.2437 18.1666 22.75 18.1666H28.25C28.7563 18.1666 29.1667 17.7562 29.1667 17.25V11.75C29.1667 11.2437 28.7563 10.8333 28.25 10.8333Z" stroke="white" stroke-width="1.83333" stroke-linecap="round" stroke-linejoin="round"/>
</svg>
