<svg width="52" height="52" viewBox="0 0 52 52" fill="none" xmlns="http://www.w3.org/2000/svg">
<path d="M30.3458 31.8594C29.0521 32.7219 27.5493 33.1778 26 33.1778C24.4508 33.1778 22.948 32.7219 21.6543 31.8594L0.346227 17.6536C0.228008 17.5748 0.112836 17.4926 0 17.4081V40.6859C0 43.3548 2.16582 45.4729 4.78695 45.4729H47.213C49.8818 45.4729 51.9999 43.3071 51.9999 40.6859V17.408C51.8869 17.4927 51.7715 17.5751 51.653 17.654L30.3458 31.8594Z" fill="url(#paint0_linear_4449_3140)"/>
<path d="M2.03633 15.1184L23.3444 29.3244C24.1511 29.8621 25.0755 30.131 25.9999 30.131C26.9244 30.131 27.8489 29.862 28.6556 29.3244L49.9637 15.1184C51.2388 14.2688 52 12.847 52 11.3124C52 8.67366 49.8533 6.52704 47.2147 6.52704H4.78532C2.14673 6.52714 0 8.67377 0 11.3149C0 12.847 0.761312 14.2688 2.03633 15.1184Z" fill="url(#paint1_linear_4449_3140)"/>
<defs>
<linearGradient id="paint0_linear_4449_3140" x1="0" y1="31.4405" x2="51.9999" y2="31.4405" gradientUnits="userSpaceOnUse">
<stop offset="0.1" stop-color="#E8BC33"/>
<stop offset="1" stop-color="#B07A09"/>
</linearGradient>
<linearGradient id="paint1_linear_4449_3140" x1="0" y1="18.329" x2="52" y2="18.329" gradientUnits="userSpaceOnUse">
<stop offset="0.1" stop-color="#E8BC33"/>
<stop offset="1" stop-color="#B07A09"/>
</linearGradient>
</defs>
</svg>
