<svg width="44" height="44" viewBox="0 0 44 44" fill="none" xmlns="http://www.w3.org/2000/svg">
<rect x="0.5" y="0.5" width="43" height="43" rx="21.5" stroke="url(#paint0_linear_4249_6369)"/>
<path d="M12 14.5L19.6345 20.2653L19.6371 20.2674C20.4848 20.8891 20.9089 21.2001 21.3734 21.3203C21.784 21.4265 22.2156 21.4265 22.6262 21.3203C23.0912 21.2 23.5165 20.8881 24.3657 20.2653C24.3657 20.2653 29.2626 16.5074 32 14.5M10.75 26.7502V17.2502C10.75 15.8501 10.75 15.1495 11.0225 14.6147C11.2622 14.1443 11.6443 13.7622 12.1147 13.5225C12.6495 13.25 13.3501 13.25 14.7502 13.25H29.2502C30.6504 13.25 31.3495 13.25 31.8842 13.5225C32.3547 13.7622 32.7381 14.1443 32.9778 14.6147C33.25 15.149 33.25 15.8487 33.25 17.2461V26.7545C33.25 28.1519 33.25 28.8506 32.9778 29.3849C32.7381 29.8553 32.3547 30.2381 31.8842 30.4778C31.35 30.75 30.6513 30.75 29.2539 30.75H14.7461C13.3487 30.75 12.649 30.75 12.1147 30.4778C11.6443 30.2381 11.2622 29.8553 11.0225 29.3849C10.75 28.8501 10.75 28.1504 10.75 26.7502Z" stroke="url(#paint1_linear_4249_6369)" stroke-width="2" stroke-linecap="round" stroke-linejoin="round"/>
<defs>
<linearGradient id="paint0_linear_4249_6369" x1="0" y1="22" x2="44" y2="22" gradientUnits="userSpaceOnUse">
<stop offset="0.1" stop-color="#E8BC33"/>
<stop offset="1" stop-color="#B07A09"/>
</linearGradient>
<linearGradient id="paint1_linear_4249_6369" x1="10.75" y1="22" x2="33.25" y2="22" gradientUnits="userSpaceOnUse">
<stop offset="0.1" stop-color="#E8BC33"/>
<stop offset="1" stop-color="#B07A09"/>
</linearGradient>
</defs>
</svg>
