<?xml version="1.0" encoding="utf-8"?>
<!-- Generator: Adobe Illustrator 23.1.0, SVG Export Plug-In . SVG Version: 6.00 Build 0)  -->
<!DOCTYPE svg PUBLIC "-//W3C//DTD SVG 1.1//EN" "http://www.w3.org/Graphics/SVG/1.1/DTD/svg11.dtd" [
	<!ENTITY ns_extend "http://ns.adobe.com/Extensibility/1.0/">
	<!ENTITY ns_ai "http://ns.adobe.com/AdobeIllustrator/10.0/">
	<!ENTITY ns_graphs "http://ns.adobe.com/Graphs/1.0/">
	<!ENTITY ns_vars "http://ns.adobe.com/Variables/1.0/">
	<!ENTITY ns_imrep "http://ns.adobe.com/ImageReplacement/1.0/">
	<!ENTITY ns_sfw "http://ns.adobe.com/SaveForWeb/1.0/">
	<!ENTITY ns_custom "http://ns.adobe.com/GenericCustomNamespace/1.0/">
	<!ENTITY ns_adobe_xpath "http://ns.adobe.com/XPath/1.0/">
]>
<svg version="1.1" id="Layer_1" xmlns:x="&ns_extend;" xmlns:i="&ns_ai;" xmlns:graph="&ns_graphs;"
	 xmlns="http://www.w3.org/2000/svg" xmlns:xlink="http://www.w3.org/1999/xlink" x="0px" y="0px" viewBox="0 0 1152 576"
	 style="enable-background:new 0 0 1152 576;" xml:space="preserve">
<style type="text/css">
	.st0{fill:#003366;}
	.st1{fill:#C20017;}
</style>
<metadata>
	<sfw  xmlns="&ns_sfw;">
		<slices></slices>
		<sliceSourceBounds  bottomLeftOrigin="true" height="576" width="1152" x="-528" y="-263.9"></sliceSourceBounds>
	</sfw>
</metadata>
<title>775B3A8C-7AD3-4A1E-9DC8-6BA59D27A853</title>
<desc>Created with sketchtool.</desc>
<g id="Page---Home">
	<g id="Home---1024---C" transform="translate(-16.000000, -9.000000)">
		<g>
			<g>
				<g>
					<g>
						<g transform="translate(16.000000, 9.851528)">
							<path id="fox-business" class="st0" d="M1146.2,443.1V474h-105.8l-1,0.1c-3.3,0.5-5,3.8-5,9.9l0,0l0,1.7
								c0.3,5.4,2.3,8.1,5.9,8.1l0,0h77l2.5,0.1c9,0.6,16.6,4.7,22.8,12.2l0,0l1.6,2.2c5.1,7.4,7.7,16.1,7.7,26.2l0,0l-0.1,3
								c-0.5,9.8-3.6,18.3-9.2,25.5l0,0l-1.7,2c-6.4,6.9-14.2,10.3-23.6,10.3l0,0h-105.8v-30.9h105.8l1-0.1c3.3-0.5,4.9-3.8,4.9-9.8
								l0,0l0-1.7c-0.3-5.4-2.3-8.1-5.9-8.1l0,0h-76.9l-2.5-0.1c-9.1-0.6-16.6-4.7-22.7-12.3l0,0l-1.7-2.1c-5.3-7.3-7.9-16-7.9-26.1
								l0,0l0.1-3c0.5-9.8,3.7-18.4,9.6-25.8l0,0l1.7-1.9c6.3-6.8,14.1-10.1,23.4-10.1l0,0H1146.2z M984.8,443.1V474H879l-1,0.1
								c-3.3,0.5-5,3.8-5,9.9l0,0l0,1.7c0.3,5.4,2.3,8.1,5.9,8.1l0,0h77l2.5,0.1c9.1,0.6,16.6,4.7,22.8,12.2l0,0l1.6,2.2
								c5.1,7.4,7.7,16.1,7.7,26.2l0,0l-0.1,3c-0.5,9.8-3.6,18.3-9.2,25.5l0,0l-1.7,2c-6.4,6.9-14.2,10.3-23.6,10.3l0,0H850.2v-30.9
								H956l1-0.1c3.3-0.5,4.9-3.8,4.9-9.8l0,0l0-1.7c-0.3-5.4-2.3-8.1-5.9-8.1l0,0H879l-2.5-0.1c-9-0.6-16.6-4.7-22.7-12.3l0,0
								l-1.7-2.1c-5.3-7.3-7.8-16-7.8-26.1l0,0l0.1-3c0.5-9.8,3.7-18.4,9.6-25.8l0,0l1.7-1.9c6.3-6.8,14.1-10.1,23.4-10.1l0,0H984.8
								z M825.9,443.1V474H723.7v19.7h95.5v30.8h-95.5v19.7h101.9v30.9H695.1v-132H825.9z M574.5,443.1l73.6,88.3l0-88.3h28.6v132
								h-28.6l-73.6-88.8v88.8H546v-132H574.5z M527.7,443.1v132H499v-132H527.7z M478.2,443.1V474H372.4l-1,0.1
								c-3.3,0.5-5,3.8-5,9.9l0,0l0,1.7c0.3,5.4,2.3,8.1,5.9,8.1l0,0h77l2.5,0.1c9,0.6,16.6,4.7,22.8,12.2l0,0l1.6,2.2
								c5.1,7.4,7.7,16.1,7.7,26.2l0,0l-0.1,3c-0.5,9.8-3.6,18.3-9.2,25.5l0,0l-1.7,2c-6.4,6.9-14.3,10.3-23.6,10.3l0,0H343.6v-30.9
								h105.8l1-0.1c3.3-0.5,4.9-3.8,4.9-9.8l0,0l0-1.7c-0.3-5.4-2.3-8.1-5.9-8.1l0,0h-77l-2.5-0.1c-9.1-0.6-16.6-4.7-22.8-12.3l0,0
								l-1.7-2.1c-5.3-7.3-7.9-16-7.9-26.1l0,0l0.1-3c0.5-9.8,3.8-18.4,9.7-25.8l0,0l1.7-1.9c6.3-6.8,14-10.1,23.4-10.1l0,0H478.2z
								 M197.3,443.1v91.2l0,1.6c0.3,5.6,2.4,8.4,6.2,8.4l0,0h80.9l1-0.1c3.4-0.5,5-3.8,5-9.9l0,0v-91.2h28.8v91.2l-0.1,3
								c-0.5,9.9-3.8,18.5-9.7,25.8l0,0l-1.7,1.9c-6.2,6.8-14,10.2-23.3,10.2l0,0h-80.9l-2.5-0.1c-9.2-0.6-16.7-4.6-22.6-12l0,0
								l-1.7-2.2c-5.3-7.6-8-16.4-8-26.5l0,0v-91.2H197.3z M116.7,443.1l2.7,0.1c9.6,0.6,17.3,4.3,23.1,11.2l0,0l1.6,2.1
								c4.6,6.4,6.9,14.1,6.9,23l0,0l-0.1,2.8c-0.6,11-4.8,19.6-12.6,25.9l0,0l1.9,1.4c8.7,6.6,13.1,16.4,13.1,29.1l0,0l-0.1,2.9
								c-0.5,8.6-3.4,16.1-8.7,22.2l0,0l-1.6,1.8c-6.2,6.3-14.2,9.5-24.1,9.5l0,0H0v-132H116.7z M118.9,524.6H28.6v19.7h90.3l1-0.1
								c3.5-0.5,5.2-3.8,5.2-9.8l0,0l-0.1-1.7C124.8,527.3,122.7,524.6,118.9,524.6L118.9,524.6z M116.7,474H28.6v20.1h88.1l1-0.1
								c3.5-0.5,5.2-3.8,5.2-10l0,0l0-1.6C122.6,476.8,120.5,474,116.7,474L116.7,474z M1104-0.9l48,420h-51.7L984-0.9H1104z
								 M960,59.1l125.5,360H1008L876,191.1L960,59.1z M732-0.9l48,96l48-96h132L840,191.1l120,192.1H840l-60-96l-48,96H600
								l108-192.1L600-0.9H732z M450.5-0.9c114.2,0,206.8,85.4,206.8,194.5c0,101.6-92.6,187-206.8,187
								c-114.2,0-206.8-85.4-206.8-187C243.7,84.6,336.3-0.9,450.5-0.9z M246-0.9l6,108H108v36h120v108H108v120H0v-372H246z
								 M450,83.1c-15.9,0-28.9,12.4-29.9,28l-0.1,2v156c0,16.6,13.4,30,30,30c15.9,0,28.9-12.4,29.9-28l0.1-2v-156
								C480,96.6,466.6,83.1,450,83.1z"/>
							<polygon id="divider" class="st1" points="0,395.1 0,419.1 984,419.1 972,395.1 							"/>
						</g>
					</g>
				</g>
			</g>
		</g>
	</g>
</g>
</svg>
