<?xml version="1.0" encoding="UTF-8" standalone="no"?>
<svg
   xmlns:dc="http://purl.org/dc/elements/1.1/"
   xmlns:cc="http://creativecommons.org/ns#"
   xmlns:rdf="http://www.w3.org/1999/02/22-rdf-syntax-ns#"
   xmlns:svg="http://www.w3.org/2000/svg"
   xmlns="http://www.w3.org/2000/svg"
   xmlns:xlink="http://www.w3.org/1999/xlink"
   xmlns:sodipodi="http://sodipodi.sourceforge.net/DTD/sodipodi-0.dtd"
   xmlns:inkscape="http://www.inkscape.org/namespaces/inkscape"
   viewBox="0 0 65.445 11.495"
   version="1.1"
   id="svg20">
  <clipPath
     id="a">
    <path
       transform="matrix(0.24,0,0,0.24,-43.74,-44.66)"
       d="M 150,150 H 2400 V 3304.167 H 150 Z"
       fill-rule="evenodd"
       id="path1" />
  </clipPath>
  <clipPath
     id="b">
    <path
       transform="matrix(0.24,0,0,0.24,-43.74,-44.66)"
       d="M 150,150 H 2400 V 3304.167 H 150 Z"
       fill-rule="evenodd"
       id="path4" />
  </clipPath>
  <clipPath
     id="c">
    <path
       transform="matrix(0.24,0,0,0.24,-43.74,-44.66)"
       d="m 191.667,195.833 h 154.166 v 50 H 191.667 Z"
       fill-rule="evenodd"
       id="path6" />
  </clipPath>
  <g
     clip-path="url(#c)"
     id="g12"
     transform="translate(-2.315,-2.340125)">
    <path
       d="m 6.88,6.435 v 1.23 H 9.82 C 9.73,8.355 9.5,8.86 9.15,9.215 c -0.43,0.43 -1.1,0.9 -2.27,0.9 -1.81,0 -3.225,-1.46 -3.225,-3.27 0,-1.81 1.415,-3.27 3.225,-3.27 0.975,0 1.69,0.385 2.215,0.88 L 9.96,3.59 C 9.23,2.88 8.25,2.34 6.88,2.34 c -2.48,0 -4.565,2.02 -4.565,4.5 0,2.48 2.085,4.5 4.565,4.5 1.34,0 2.35,-0.44 3.14,-1.26 0.81,-0.81 1.065,-1.955 1.065,-2.875 0,-0.285 -0.02,-0.55 -0.065,-0.77 z"
       fill="#4285f4"
       id="path7" />
    <path
       d="m 14.76,5.435 c -1.605,0 -2.915,1.22 -2.915,2.905 0,1.67 1.31,2.905 2.915,2.905 1.605,0 2.915,-1.23 2.915,-2.905 0,-1.685 -1.31,-2.905 -2.915,-2.905 z m 0,4.665 c -0.88,0 -1.64,-0.725 -1.64,-1.76 0,-1.045 0.76,-1.76 1.64,-1.76 0.88,0 1.64,0.715 1.64,1.76 0,1.035 -0.76,1.76 -1.64,1.76 z"
       fill="#ea4335"
       id="path8" />
    <path
       d="m 29.05,6.085 h -0.045 c -0.285,-0.34 -0.835,-0.65 -1.53,-0.65 -1.45,0 -2.715,1.265 -2.715,2.905 0,1.63 1.265,2.905 2.715,2.905 0.695,0 1.245,-0.31 1.53,-0.66 h 0.045 v 0.405 c 0,1.11 -0.595,1.705 -1.55,1.705 -0.78,0 -1.265,-0.56 -1.465,-1.035 l -1.11,0.46 c 0.32,0.77 1.165,1.715 2.575,1.715 1.495,0 2.76,-0.88 2.76,-3.025 V 5.585 H 29.05 Z M 27.585,10.1 c -0.88,0 -1.55,-0.75 -1.55,-1.76 0,-1.025 0.67,-1.76 1.55,-1.76 0.87,0 1.55,0.75 1.55,1.77 0.005,1.015 -0.68,1.75 -1.55,1.75 z"
       fill="#4285f4"
       id="path9" />
    <path
       d="m 21.26,5.435 c -1.605,0 -2.915,1.22 -2.915,2.905 0,1.67 1.31,2.905 2.915,2.905 1.605,0 2.915,-1.23 2.915,-2.905 0,-1.685 -1.31,-2.905 -2.915,-2.905 z m 0,4.665 c -0.88,0 -1.64,-0.725 -1.64,-1.76 0,-1.045 0.76,-1.76 1.64,-1.76 0.88,0 1.64,0.715 1.64,1.76 0,1.035 -0.76,1.76 -1.64,1.76 z"
       fill="#fbbc05"
       id="path10" />
    <path
       d="m 31.26,2.46 h 1.255 v 8.785 H 31.26 Z"
       fill="#34a853"
       id="path11" />
    <path
       d="m 36.39,10.1 c -0.65,0 -1.11,-0.295 -1.41,-0.88 l 3.885,-1.605 -0.13,-0.33 c -0.24,-0.65 -0.98,-1.85 -2.485,-1.85 -1.495,0 -2.74,1.175 -2.74,2.905 0,1.63 1.23,2.905 2.88,2.905 1.33,0 2.1,-0.815 2.42,-1.285 L 37.82,9.3 c -0.33,0.48 -0.78,0.8 -1.43,0.8 z M 36.3,6.525 c 0.515,0 0.955,0.265 1.1,0.64 L 34.775,8.25 c 0,-1.22 0.865,-1.725 1.525,-1.725 z"
       fill="#ea4335"
       id="path12" />
  </g>
  <clipPath
     id="d">
    <path
       transform="matrix(0.24,0,0,0.24,-43.74,-44.66)"
       d="m 345.833,170.833 h 118.75 v 97.917 h -118.75 z"
       fill-rule="evenodd"
       id="path13" />
  </clipPath>
  <g
     clip-path="url(#d)"
     id="g20"
     transform="translate(-2.315,-2.340125)">
    <symbol
       id="e">
      <path
         d="M 0.092,0 H 0 V 0.716 H 0.112 L 0.46,0.159 H 0.464 L 0.46,0.297 V 0.716 H 0.552 V 0 H 0.456 L 0.092,0.584 H 0.088 L 0.092,0.446 Z"
         id="path14" />
    </symbol>
    <symbol
       id="f">
      <path
         d="M 0.248,0 A 0.234,0.234 0 0 0 0.07,0.074 0.261,0.261 0 0 0 0,0.261 c 0,0.075 0.023,0.137 0.068,0.186 0.045,0.05 0.103,0.075 0.174,0.075 0.073,0 0.13,-0.024 0.173,-0.071 A 0.279,0.279 0 0 0 0.48,0.254 L 0.479,0.244 H 0.094 A 0.16,0.16 0 0 1 0.142,0.128 0.154,0.154 0 0 1 0.252,0.084 c 0.059,0 0.105,0.03 0.138,0.088 L 0.472,0.132 A 0.25,0.25 0 0 0 0.248,0 M 0.101,0.32 H 0.382 A 0.12,0.12 0 0 1 0.34,0.404 0.142,0.142 0 0 1 0.24,0.438 0.135,0.135 0 0 1 0.15,0.406 0.154,0.154 0 0 1 0.101,0.32 Z"
         id="path15" />
    </symbol>
    <symbol
       id="g">
      <path
         d="M 0.746,0.49 0.588,0 H 0.494 L 0.372,0.376 0.251,0 H 0.158 L 0,0.49 H 0.096 L 0.205,0.12 H 0.206 L 0.327,0.49 H 0.422 L 0.543,0.12 h 0.001 l 0.108,0.37 z"
         id="path16" />
    </symbol>
    <symbol
       id="h">
      <path
         d="M 0.407,0.152 A 0.133,0.133 0 0 0 0.351,0.044 0.221,0.221 0 0 0 0.21,0 0.215,0.215 0 0 0 0,0.14 L 0.082,0.175 A 0.157,0.157 0 0 1 0.134,0.106 0.132,0.132 0 0 1 0.21,0.082 0.13,0.13 0 0 1 0.283,0.101 c 0.02,0.013 0.03,0.028 0.03,0.045 0,0.031 -0.024,0.054 -0.072,0.069 L 0.157,0.236 C 0.062,0.26 0.014,0.306 0.014,0.374 c 0,0.045 0.018,0.08 0.054,0.107 a 0.228,0.228 0 0 0 0.14,0.041 c 0.043,0 0.082,-0.01 0.117,-0.031 A 0.168,0.168 0 0 0 0.399,0.408 L 0.317,0.374 a 0.1,0.1 0 0 1 -0.046,0.048 0.137,0.137 0 0 1 -0.135,0 C 0.117,0.41 0.108,0.395 0.108,0.378 0.108,0.35 0.134,0.33 0.187,0.318 L 0.261,0.299 C 0.358,0.275 0.407,0.226 0.407,0.152 Z"
         id="path17" />
    </symbol>
    <use
       xlink:href="#e"
       transform="matrix(11,0,0,-11,42.052,11.34)"
       fill="#5f6368"
       id="use17"
       x="0"
       y="0"
       width="100%"
       height="100%" />
    <use
       xlink:href="#f"
       transform="matrix(11,0,0,-11,49.224,11.516)"
       fill="#5f6368"
       id="use18"
       x="0"
       y="0"
       width="100%"
       height="100%" />
    <use
       xlink:href="#g"
       transform="matrix(11,0,0,-11,54.746,11.34)"
       fill="#5f6368"
       id="use19"
       x="0"
       y="0"
       width="100%"
       height="100%" />
    <use
       xlink:href="#h"
       transform="matrix(11,0,0,-11,63.26,11.516)"
       fill="#5f6368"
       id="use20"
       x="0"
       y="0"
       width="100%"
       height="100%" />
  </g>
</svg>
