<svg width="35" height="35" viewBox="0 0 35 35" fill="none" xmlns="http://www.w3.org/2000/svg">
<rect x="0.5" y="0.5" width="34" height="34" rx="17" stroke="white"/>
<path d="M23.5069 26.1705C24.737 25.6952 25.7094 24.7228 26.1847 23.4927C26.4097 22.91 26.5671 22.2452 26.6099 21.2728C26.62 21.045 26.6279 20.8537 26.6352 20.662V14.1647C26.6301 14.0291 26.6245 13.8879 26.6172 13.7293C26.5744 12.7569 26.417 12.0887 26.192 11.5094C25.9597 10.8946 25.602 10.344 25.134 9.88675C24.6762 9.42162 24.1222 9.06053 23.5142 8.83218C22.9315 8.60721 22.2667 8.44972 21.2943 8.40698C20.3145 8.3603 20.0035 8.34961 17.5192 8.34961C15.0349 8.34961 14.7233 8.3603 13.7475 8.40304C12.775 8.44579 12.1068 8.60327 11.5275 8.82825C10.9128 9.06053 10.3622 9.41824 9.90433 9.88675C9.43976 10.3446 9.07867 10.8986 8.84976 11.506C8.62478 12.0887 8.4673 12.7535 8.42456 13.726C8.37787 14.7057 8.36719 15.0168 8.36719 17.5016C8.36719 19.9865 8.37787 20.2975 8.42062 21.2733C8.46336 22.2458 8.62085 22.9145 8.84638 23.4933C9.07867 24.108 9.43976 24.6586 9.90433 25.1165C10.3622 25.581 10.9162 25.9427 11.5242 26.171C12.1068 26.396 12.7716 26.5535 13.7441 26.5962C14.7199 26.6395 15.031 26.6502 17.5158 26.6502C20.0007 26.6502 20.3111 26.6395 21.2875 26.5962C22.26 26.5535 22.9276 26.3954 23.5069 26.1705ZM17.5226 25.0051C15.0805 25.0051 14.7874 24.9944 13.8257 24.9517C12.9319 24.9123 12.4494 24.7621 12.1277 24.6373C11.7311 24.4905 11.37 24.2582 11.0765 23.9545C10.7727 23.6575 10.5399 23.3003 10.3937 22.9033C10.2688 22.5816 10.1186 22.095 10.0792 21.2053C10.0365 20.2401 10.0258 19.9505 10.0258 17.5084C10.0258 15.0663 10.0365 14.7732 10.0792 13.812C10.1186 12.9183 10.2688 12.4357 10.3937 12.114C10.5404 11.7169 10.7727 11.3558 11.0804 11.0628C11.3768 10.7591 11.7345 10.5268 12.131 10.38C12.4527 10.2552 12.9392 10.105 13.829 10.0656C14.7942 10.0229 15.0838 10.0122 17.5254 10.0122C19.9669 10.0122 20.2605 10.0229 21.2223 10.0656C22.116 10.105 22.5986 10.2552 22.9203 10.38C23.3168 10.5268 23.6779 10.7591 23.9709 11.0628C24.2746 11.3598 24.5075 11.7169 24.6537 12.114C24.7786 12.4357 24.9287 12.9217 24.9681 13.812C25.0109 14.7772 25.0216 15.0668 25.0216 17.5084C25.0216 19.9499 25.0109 20.2362 24.9681 21.2013C24.9287 22.095 24.7786 22.5776 24.6537 22.8993C24.3461 23.6969 23.7133 24.3296 22.9163 24.6367C22.5946 24.7616 22.1087 24.9117 21.2183 24.9511C20.2532 24.9939 19.9641 25.0051 17.5226 25.0051Z" fill="white"/>
<path d="M17.5194 12.7997C14.9237 12.7997 12.818 14.9054 12.818 17.5011C12.818 20.0967 14.9237 22.2025 17.5194 22.2025C20.115 22.2025 22.2202 20.0967 22.2202 17.5011C22.2202 14.9054 20.1145 12.7997 17.5194 12.7997ZM17.5194 20.5501C15.8354 20.5501 14.4698 19.1845 14.4698 17.5005C14.4698 15.8166 15.8354 14.451 17.5194 14.451C19.2033 14.451 20.5689 15.8166 20.5689 17.5005C20.5689 19.1845 19.2033 20.5501 17.5194 20.5501Z" fill="white"/>
<path d="M23.5025 12.6138C23.5025 12.0075 23.0109 11.5165 22.4046 11.5165C21.7983 11.5165 21.3073 12.008 21.3073 12.6138C21.3073 13.2195 21.7989 13.7111 22.4046 13.7111C23.0104 13.7111 23.5025 13.2201 23.5025 12.6138Z" fill="white"/>
</svg>
