<svg width="10" height="10" viewBox="0 0 10 10" fill="none" xmlns="http://www.w3.org/2000/svg">
<path d="M4.61426 2.23535C5.90625 2.23535 6.97266 3.30176 6.97266 4.59375C6.97266 5.90625 5.90625 6.95215 4.61426 6.95215C3.30176 6.95215 2.25586 5.90625 2.25586 4.59375C2.25586 3.30176 3.30176 2.23535 4.61426 2.23535ZM4.61426 6.13184C5.45508 6.13184 6.13184 5.45508 6.13184 4.59375C6.13184 3.75293 5.45508 3.07617 4.61426 3.07617C3.75293 3.07617 3.07617 3.75293 3.07617 4.59375C3.07617 5.45508 3.77344 6.13184 4.61426 6.13184ZM7.6084 2.15332C7.6084 2.46094 7.36231 2.70703 7.05469 2.70703C6.74707 2.70703 6.50098 2.46094 6.50098 2.15332C6.50098 1.8457 6.74707 1.59961 7.05469 1.59961C7.36231 1.59961 7.6084 1.8457 7.6084 2.15332ZM9.167 2.70703C9.20801 3.46582 9.20801 5.74219 9.167 6.50098C9.12598 7.23926 8.96192 7.875 8.42871 8.42871C7.89551 8.96191 7.23926 9.12598 6.50098 9.16699C5.74219 9.20801 3.46582 9.20801 2.70703 9.16699C1.96875 9.12598 1.33301 8.96191 0.7793 8.42871C0.246097 7.875 0.0820341 7.23926 0.0410185 6.50098C2.86102e-06 5.74219 2.86102e-06 3.46582 0.0410185 2.70703C0.0820341 1.96875 0.246097 1.3125 0.7793 0.779297C1.33301 0.246094 1.96875 0.0820312 2.70703 0.0410156C3.46582 0 5.74219 0 6.50098 0.0410156C7.23926 0.0820312 7.89551 0.246094 8.42871 0.779297C8.96192 1.3125 9.12598 1.96875 9.167 2.70703ZM8.18262 7.30078C8.42871 6.70605 8.36719 5.27051 8.36719 4.59375C8.36719 3.9375 8.42871 2.50195 8.18262 1.88672C8.01856 1.49707 7.71094 1.16895 7.32129 1.02539C6.70606 0.779297 5.27051 0.84082 4.61426 0.84082C3.9375 0.84082 2.50196 0.779297 1.90723 1.02539C1.49707 1.18945 1.18946 1.49707 1.02539 1.88672C0.7793 2.50195 0.840823 3.9375 0.840823 4.59375C0.840823 5.27051 0.7793 6.70605 1.02539 7.30078C1.18946 7.71094 1.49707 8.01855 1.90723 8.18262C2.50196 8.42871 3.9375 8.36719 4.61426 8.36719C5.27051 8.36719 6.70606 8.42871 7.32129 8.18262C7.71094 8.01855 8.03907 7.71094 8.18262 7.30078Z" fill="white"/>
</svg>
