<svg width="10" height="10" viewBox="0 0 10 10" fill="none" xmlns="http://www.w3.org/2000/svg">
<path d="M2.05078 9.16699H0.143558V3.03516H2.05078V9.16699ZM1.08692 2.21484C0.49219 2.21484 2.86102e-06 1.70215 2.86102e-06 1.08691C2.86102e-06 0.492188 0.49219 0 1.08692 0C1.70215 0 2.19434 0.492188 2.19434 1.08691C2.19434 1.70215 1.70215 2.21484 1.08692 2.21484ZM9.167 9.16699H7.28028V6.19336C7.28028 5.47559 7.25977 4.57324 6.27539 4.57324C5.29102 4.57324 5.14746 5.33203 5.14746 6.13184V9.16699H3.24024V3.03516H5.06543V3.87598H5.08594C5.35254 3.4043 5.96778 2.8916 6.89063 2.8916C8.81836 2.8916 9.1875 4.16309 9.1875 5.80371V9.16699H9.167Z" fill="white"/>
</svg>
