<svg width="118" height="22" viewBox="0 0 118 22" fill="none" xmlns="http://www.w3.org/2000/svg">
<g clip-path="url(#clip0_4130_969)">
<path d="M6.56288 21.5889H5.85308C4.0093 21.5889 2.9 21.5886 2.05261 21.4356L6.95672 15.1309L6.56288 21.5889Z" fill="#828282"/>
<path d="M14.6742 21.4547C13.8414 21.5882 12.7502 21.5888 10.9882 21.5888H10.1491L9.7533 15.1289L14.6742 21.4547Z" fill="#828282"/>
<path d="M19.3573 17.093C19.3215 17.2585 19.2793 17.414 19.2279 17.5636C18.8915 18.5427 18.3008 19.4038 17.5311 20.0763L12.0011 14.0562L19.3573 17.093Z" fill="#828282"/>
<path d="M-0.760725 20.012C-1.49541 19.3492 -2.06058 18.5121 -2.38655 17.5636C-2.44299 17.3993 -2.48986 17.2281 -2.52771 17.0442L4.70905 14.0571L-0.760725 20.012Z" fill="#828282"/>
<path d="M19.5399 13.2872C19.5399 13.8941 19.5381 14.419 19.532 14.8798L12.9645 12.417H19.5399V13.2872Z" fill="#828282"/>
<path d="M3.74852 12.417L-2.69256 14.832C-2.69809 14.3827 -2.69849 13.8731 -2.69849 13.2872V12.417H3.74852Z" fill="#828282"/>
<path d="M10.9881 0C13.3023 0 14.4594 0.000298824 15.3937 0.302824C17.2035 0.888984 18.624 2.26793 19.2278 4.02488C19.5394 4.93192 19.5397 6.05525 19.5397 8.30177V10.803H12.5952L17.6039 8.73591L16.1183 7.77856L11.2586 9.60027L13.5399 6.66982L11.8993 6.23379L9.38009 8.97452L9.19251 5.88783H7.5213L7.33077 8.97452L4.81356 6.23379L3.17393 6.66982L5.45224 9.59935L0.595485 7.77856L-0.890164 8.73591L4.11761 10.803H-2.69861V8.30177C-2.69861 6.05525 -2.6983 4.93192 -2.38667 4.02488C-1.78287 2.26793 -0.362426 0.888984 1.44739 0.302824C2.38173 0.000298824 3.53886 0 5.85298 0H10.9881Z" fill="#828282"/>
<path d="M49.1577 16.9705C49.6802 17.9218 50.6893 18.5206 51.9896 18.5206C53.2899 18.5206 54.299 17.9218 54.8216 16.9705H56.7774C56.1308 18.8713 54.334 20.1418 51.9896 20.1418C49.6454 20.1418 47.8483 18.8713 47.2015 16.9705H49.1577ZM77.6392 6.88666C80.6192 6.88666 82.7068 8.87654 82.7068 11.7325C82.7068 14.7543 80.3912 16.4682 77.9428 16.4682C76.4244 16.4681 75.1341 15.8047 74.4508 14.6256V20.116H72.6473V11.751C72.6473 8.78447 74.7354 6.88666 77.6392 6.88666ZM77.6581 8.50792C75.7412 8.50792 74.4508 9.8347 74.4508 11.6771C74.4508 13.5197 75.7412 14.8464 77.6581 14.8464C79.594 14.8464 80.8849 13.5197 80.8849 11.6771C80.8849 9.83465 79.594 8.50792 77.6581 8.50792ZM41.2548 6.88666C44.2156 6.88666 46.3034 8.91341 46.3035 11.6771C46.3035 14.441 44.2157 16.4682 41.2548 16.4682C38.294 16.4682 36.2061 14.441 36.2061 11.6771C36.2062 8.91341 38.294 6.88666 41.2548 6.88666ZM41.2548 8.50792C39.3189 8.50792 38.0283 9.83465 38.0282 11.6771C38.0282 13.5197 39.3189 14.8464 41.2548 14.8464C43.1908 14.8464 44.4815 13.5197 44.4815 11.6771C44.4814 9.83465 43.1907 8.50792 41.2548 8.50792ZM52.1894 6.89087H57.0938V8.45627H55.8284C56.5945 9.29024 57.0376 10.4052 57.0376 11.6771C57.0376 14.441 54.95 16.4682 51.9891 16.4682C49.0282 16.4682 46.9404 14.441 46.9404 11.6771C46.9405 8.91341 49.0283 6.88666 51.9891 6.88666C52.0563 6.88666 52.1231 6.88877 52.1894 6.89087ZM51.9891 8.50792C50.0532 8.50792 48.7625 9.83465 48.7624 11.6771C48.7624 13.5197 50.0531 14.8464 51.9891 14.8464C53.9248 14.8464 55.2157 13.5197 55.2157 11.6771C55.2157 9.83465 53.9248 8.50792 51.9891 8.50792ZM62.724 6.88666C65.6844 6.88666 67.7726 8.91341 67.7726 11.6771C67.7726 14.441 65.6844 16.4682 62.724 16.4682C59.7629 16.4682 57.6753 14.441 57.6753 11.6771C57.6753 8.91341 59.7629 6.88666 62.724 6.88666ZM62.724 8.50792C60.7881 8.50792 59.4972 9.83465 59.4972 11.6771C59.4972 13.5197 60.7881 14.8464 62.724 14.8464C64.6598 14.8464 65.9507 13.5197 65.9507 11.6771C65.9502 9.83465 64.6598 8.50792 62.724 8.50792ZM87.2645 6.88666C89.5045 6.88671 90.8899 8.12137 90.9277 9.68747H89.1431C89.0864 8.98735 88.4226 8.47111 87.284 8.471C86.0881 8.471 85.4048 9.02421 85.4048 9.74284C85.4048 10.6086 86.3917 10.7007 87.5492 10.8481C89.1815 11.0507 91.174 11.3456 91.1746 13.4275C91.1746 15.27 89.6374 16.4681 87.284 16.4682C84.9301 16.4682 83.4495 15.2518 83.3928 13.5936H85.2147C85.2525 14.349 85.9741 14.8833 87.284 14.8833C88.65 14.8832 89.3521 14.3121 89.3521 13.5936C89.3521 12.7276 88.3653 12.6167 87.1889 12.4693C85.5566 12.2667 83.5824 11.972 83.5824 9.88986C83.5824 8.10264 85.0251 6.88666 87.2645 6.88666ZM94.0289 11.8795C94.0289 13.8511 95.1491 14.8464 96.857 14.8464C98.5655 14.8464 99.6852 13.8511 99.6852 11.8795V7.12592H101.488V11.8795C101.488 14.9014 99.6285 16.4677 96.857 16.4677C94.0861 16.4677 92.2259 14.9198 92.2259 11.8795V7.12592H94.0289V11.8795ZM28.7034 14.4965H35.6692V16.2284H26.7673V4.17804H28.7034V14.4965ZM70.9338 16.2284H69.1308V7.12592H70.9338V16.2284ZM113.363 6.88666C115.565 6.88666 117.236 8.17648 117.236 10.9588V16.2284H115.432V10.9588C115.432 9.26368 114.503 8.50797 113.193 8.50792C111.921 8.50792 110.972 9.30044 110.972 10.9588V16.2284H109.169V10.9588C109.169 9.30044 108.201 8.50792 106.929 8.50792C105.619 8.50792 104.689 9.26363 104.689 10.9588V16.2284H102.886V10.9588C102.886 8.17648 104.557 6.88666 106.759 6.88666C108.201 6.88671 109.416 7.51322 110.06 8.69239C110.706 7.51316 111.902 6.88666 113.363 6.88666ZM70.0231 3.23828C70.7442 3.23828 71.2763 3.75413 71.2763 4.45423C71.2763 5.1544 70.7442 5.68914 70.0231 5.68914C69.3021 5.68908 68.7706 5.15435 68.7706 4.45423C68.7706 3.75418 69.3021 3.23835 70.0231 3.23828Z" fill="#828282"/>
</g>
<defs>
<clipPath id="clip0_4130_969">
<rect width="120.087" height="21.5887" fill="white" transform="translate(-2.69861)"/>
</clipPath>
</defs>
</svg>
