<svg width="104" height="19" viewBox="0 0 104 19" fill="none" xmlns="http://www.w3.org/2000/svg">
<g clip-path="url(#clip0_4130_831)">
<path d="M6.17258 9.61182L8.3076 10.6006L8.03414 13.0588L4.21768 17.392C2.00236 15.963 0.423215 13.6297 -0.00012207 10.9126L6.17258 9.61182Z" fill="#828282"/>
<path d="M11.8693 12.25L14.7248 17.1798C13.1933 18.2573 11.3274 18.8899 9.3139 18.8899C8.66026 18.8899 8.02217 18.8232 7.40601 18.6963L8.03414 13.0588L9.65104 11.2231L11.8693 12.25Z" fill="#828282"/>
<path d="M18.4299 7.02734C18.633 7.79867 18.7413 8.60863 18.7413 9.44395C18.7413 11.3879 18.1551 13.1946 17.1503 14.6966L11.8698 12.2502L10.6307 10.1118L12.1872 8.34408L18.4299 7.02734Z" fill="#828282"/>
<path d="M9.48877 0C12.3255 0.0516715 14.856 1.35867 16.5506 3.39003L12.1867 8.34442L9.88808 8.82918L8.72852 6.82754L9.48877 0Z" fill="#828282"/>
<path d="M8.72849 6.82739L8.47185 9.12703L6.17393 9.61161L0.242554 6.8639C0.989577 4.222 2.85524 2.05113 5.29425 0.897461L8.72849 6.82739Z" fill="#828282"/>
<path d="M90.9253 13.8546V9.33245C90.9253 6.74607 92.4218 5.60742 94.3731 5.60742C95.5118 5.60742 96.4714 6.04662 97.0733 6.89247C97.6747 6.04662 98.6183 5.60742 99.7731 5.60742C101.724 5.60742 103.221 6.74607 103.221 9.33245V13.8546H100.781V9.33245C100.781 8.25888 100.261 7.88476 99.5289 7.88476C98.8134 7.88476 98.2931 8.25888 98.2931 9.33245V13.8546H95.8535V9.33245C95.8535 8.25888 95.3327 7.88476 94.6172 7.88476C93.8852 7.88476 93.3649 8.25888 93.3649 9.33245V13.8546H90.9253Z" fill="#828282"/>
<path d="M85.9221 13.9913C83.5475 13.9913 81.9535 12.6249 81.9535 9.90837V5.74414H84.3931V9.90837C84.3931 11.1772 85.011 11.7139 85.9221 11.7139C86.8327 11.7139 87.4506 11.1772 87.4506 9.90837V5.74414H89.8902V9.90837C89.8902 12.6086 88.2966 13.9913 85.9221 13.9913Z" fill="#828282"/>
<path d="M77.8036 13.9913C75.7377 13.9913 74.4043 12.8852 74.3718 11.3399H76.7789C76.7949 11.7628 77.1041 11.9743 77.771 11.9743C78.519 11.9743 78.7632 11.714 78.7632 11.3724C78.7632 10.8356 78.1773 10.7868 77.4293 10.6729C76.3236 10.5103 74.5019 10.2338 74.5019 8.29804C74.5019 6.67136 75.7867 5.53271 77.7871 5.53271C79.7879 5.53271 81.0237 6.68765 81.0727 8.13539H78.6981C78.6331 7.76123 78.3074 7.54975 77.8196 7.54975C77.2182 7.54975 76.974 7.85884 76.974 8.18418C76.974 8.67215 77.5594 8.73723 78.3079 8.85109C79.4622 9.01378 81.2353 9.32282 81.2353 11.226C81.2353 12.8852 79.8689 13.9913 77.8036 13.9913Z" fill="#828282"/>
<path d="M65.3599 17.2121V9.84334C65.3599 7.1431 67.1811 5.53271 69.6372 5.53271C72.1904 5.53271 73.9795 7.27325 73.9795 9.85963C73.9795 12.6575 71.8977 13.9913 70.0764 13.9913C69.1168 13.9913 68.3033 13.6172 67.7995 12.9015V17.2121H65.3599ZM69.6532 11.714C70.7594 11.714 71.5074 10.917 71.5074 9.76202C71.5074 8.60708 70.7594 7.81006 69.6532 7.81006C68.5475 7.81006 67.7995 8.60708 67.7995 9.76202C67.7995 10.917 68.5475 11.714 69.6532 11.714Z" fill="#828282"/>
<path d="M62.8393 5.01187C61.9448 5.01187 61.2778 4.34492 61.2778 3.45026C61.2778 2.5556 61.9448 1.88867 62.8393 1.88867C63.7335 1.88867 64.4004 2.5556 64.4004 3.45026C64.4004 4.34492 63.7335 5.01187 62.8393 5.01187ZM61.6195 13.7795V5.74386H64.0591V13.7795H61.6195Z" fill="#828282"/>
<path d="M56.3246 13.9913C53.7875 13.9913 51.9983 12.202 51.9983 9.76202C51.9983 7.32203 53.7875 5.53271 56.3246 5.53271C58.8618 5.53271 60.6509 7.32203 60.6509 9.76202C60.6509 12.202 58.8618 13.9913 56.3246 13.9913ZM56.3246 11.714C57.4308 11.714 58.1788 10.917 58.1788 9.76202C58.1788 8.60708 57.4308 7.81006 56.3246 7.81006C55.2189 7.81006 54.4704 8.60708 54.4704 9.76202C54.4704 10.917 55.2189 11.714 56.3246 11.714Z" fill="#828282"/>
<path d="M47.2893 13.9913C44.752 13.9913 42.963 12.202 42.963 9.76202C42.963 7.32203 44.752 5.53271 47.2893 5.53271C49.8264 5.53271 51.6156 7.32203 51.6156 9.76202C51.6156 12.202 49.8264 13.9913 47.2893 13.9913ZM47.2893 11.714C48.395 11.714 49.1435 10.917 49.1435 9.76202C49.1435 8.60708 48.395 7.81006 47.2893 7.81006C46.1833 7.81006 45.4351 8.60708 45.4351 9.76202C45.4351 10.917 46.1833 11.714 47.2893 11.714Z" fill="#828282"/>
<path d="M38.2538 13.9913C35.7166 13.9913 33.9276 12.202 33.9276 9.76202C33.9276 7.32203 35.7166 5.53271 38.2538 5.53271C40.791 5.53271 42.58 7.32203 42.58 9.76202C42.58 12.202 40.791 13.9913 38.2538 13.9913ZM38.2538 11.714C39.3598 11.714 40.1079 10.917 40.1079 9.76202C40.1079 8.60708 39.3598 7.81006 38.2538 7.81006C37.1479 7.81006 36.3997 8.60708 36.3997 9.76202C36.3997 10.917 37.1479 11.714 38.2538 11.714Z" fill="#828282"/>
<path d="M25.923 13.7799V3.1416H28.5577V11.34H33.5833V13.7799H25.923Z" fill="#828282"/>
<path d="M51.2918 14.5327C51.0458 16.7912 49.5286 17.9454 47.3595 17.9454C45.1888 17.9454 43.6714 16.8036 43.4265 14.5327H45.9014C46.0878 15.323 46.6292 15.668 47.3595 15.668C48.0891 15.668 48.6307 15.3231 48.8173 14.5327H51.2918Z" fill="#828282"/>
</g>
<defs>
<clipPath id="clip0_4130_831">
<rect width="103.221" height="18.8901" fill="white"/>
</clipPath>
</defs>
</svg>
