<svg width="46" height="37" viewBox="0 0 46 37" fill="none" xmlns="http://www.w3.org/2000/svg">
<path d="M1.66111 21.4211L14.95 0H22.2333L13.6722 18.5649C17.1648 20.3825 18.9111 23.2819 18.9111 27.2632C18.9111 29.8596 17.9741 32.1532 16.1 34.1439C14.2259 36.048 12.0111 37 9.45555 37C6.72963 37 4.47222 36.048 2.68333 34.1439C0.894444 32.2398 0 29.9462 0 27.2632C0 25.0994 0.553704 23.152 1.66111 21.4211ZM25.4278 21.4211L38.7167 0H46L37.4389 18.5649C40.9315 20.3825 42.6778 23.2819 42.6778 27.2632C42.6778 29.8596 41.7407 32.1532 39.8667 34.1439C37.9926 36.048 35.7778 37 33.2222 37C30.4963 37 28.2389 36.048 26.45 34.1439C24.6611 32.2398 23.7667 29.9462 23.7667 27.2632C23.7667 25.0994 24.3204 23.152 25.4278 21.4211Z" fill="url(#paint0_linear_4130_734)"/>
<defs>
<linearGradient id="paint0_linear_4130_734" x1="0" y1="18.5" x2="46" y2="18.5" gradientUnits="userSpaceOnUse">
<stop offset="0.1" stop-color="#E8BC33"/>
<stop offset="1" stop-color="#B07A09"/>
</linearGradient>
</defs>
</svg>
