<svg width="11" height="9" viewBox="0 0 11 9" fill="none" xmlns="http://www.w3.org/2000/svg">
<path d="M9.41308 2.1123C9.41308 2.21484 9.41308 2.29688 9.41308 2.39941C9.41308 5.25 7.25976 8.51074 3.30175 8.51074C2.07129 8.51074 0.943357 8.16211 -2.86102e-06 7.54688C0.16406 7.56738 0.328122 7.58789 0.512692 7.58789C1.51758 7.58789 2.44043 7.23926 3.17871 6.66504C2.23535 6.64453 1.43554 6.0293 1.16894 5.16797C1.3125 5.18848 1.43554 5.20898 1.5791 5.20898C1.76367 5.20898 1.96875 5.16797 2.13281 5.12695C1.14843 4.92188 0.410153 4.06055 0.410153 3.01465V2.99414C0.697263 3.1582 1.0459 3.24023 1.39453 3.26074C0.799802 2.87109 0.430661 2.21484 0.430661 1.47656C0.430661 1.06641 0.5332 0.697266 0.717771 0.389648C1.78418 1.68164 3.38379 2.54297 5.16797 2.64551C5.12695 2.48145 5.10644 2.31738 5.10644 2.15332C5.10644 0.963867 6.07031 0 7.25976 0C7.875 0 8.42871 0.246094 8.83886 0.676758C9.31054 0.574219 9.78222 0.389648 10.1924 0.143555C10.0283 0.65625 9.70019 1.06641 9.24902 1.33301C9.67968 1.29199 10.1103 1.16895 10.4795 1.00488C10.1924 1.43555 9.82324 1.80469 9.41308 2.1123Z" fill="white"/>
</svg>
