<svg width="40" height="40" viewBox="0 0 40 40" fill="none" xmlns="http://www.w3.org/2000/svg">
<rect width="40" height="40" rx="20" fill="white" fill-opacity="0.1"/>
<g clip-path="url(#clip0_4538_479)">
<path d="M18.168 22.9382V24.4287C18.1645 24.7428 18.0804 25.0507 17.9238 25.323C17.7671 25.5952 17.5431 25.8226 17.2733 25.9834C16.7005 26.4076 16.2346 26.9596 15.9125 27.5955C15.5904 28.2314 15.4211 28.9336 15.418 29.6464" stroke="white" stroke-width="1.83333" stroke-linecap="round" stroke-linejoin="round"/>
<path d="M21.832 22.9382V24.4287C21.8355 24.7428 21.9196 25.0507 22.0762 25.323C22.2329 25.5952 22.4569 25.8226 22.7267 25.9834C23.2995 26.4076 23.7654 26.9596 24.0875 27.5955C24.4096 28.2314 24.5789 28.9336 24.582 29.6464" stroke="white" stroke-width="1.83333" stroke-linecap="round" stroke-linejoin="round"/>
<path d="M25.5 17.7501H26.875C27.4828 17.7501 28.0657 17.5086 28.4955 17.0789C28.9252 16.6491 29.1667 16.0662 29.1667 15.4584C29.1667 14.8506 28.9252 14.2677 28.4955 13.838C28.0657 13.4082 27.4828 13.1667 26.875 13.1667H25.5" stroke="white" stroke-width="1.83333" stroke-linecap="round" stroke-linejoin="round"/>
<path d="M12.668 29.6667H27.3346" stroke="white" stroke-width="1.83333" stroke-linecap="round" stroke-linejoin="round"/>
<path d="M14.5 17.7499C14.5 19.2086 15.0795 20.6076 16.1109 21.639C17.1424 22.6705 18.5413 23.2499 20 23.2499C21.4587 23.2499 22.8576 22.6705 23.8891 21.639C24.9205 20.6076 25.5 19.2086 25.5 17.7499V12.2499C25.5 12.0068 25.4034 11.7736 25.2315 11.6017C25.0596 11.4298 24.8264 11.3333 24.5833 11.3333H15.4167C15.1736 11.3333 14.9404 11.4298 14.7685 11.6017C14.5966 11.7736 14.5 12.0068 14.5 12.2499V17.7499Z" stroke="white" stroke-width="1.83333" stroke-linecap="round" stroke-linejoin="round"/>
<path d="M14.4987 17.7501H13.1237C12.5159 17.7501 11.933 17.5086 11.5032 17.0789C11.0735 16.6491 10.832 16.0662 10.832 15.4584C10.832 14.8506 11.0735 14.2677 11.5032 13.838C11.933 13.4082 12.5159 13.1667 13.1237 13.1667H14.4987" stroke="white" stroke-width="1.83333" stroke-linecap="round" stroke-linejoin="round"/>
</g>
<defs>
<clipPath id="clip0_4538_479">
<rect width="22" height="22" fill="white" transform="translate(9 9.5)"/>
</clipPath>
</defs>
</svg>
